<svg xmlns="http://www.w3.org/2000/svg" height="2048" preserveAspectRatio="none" style="display: block;" version="1.1" viewBox="0 0 2048 2048" width="2048">
<path d="M 0 0 L 2048 0 L 2048 2048 L 0 2048 L 0 0 z" fill="rgb(22,14,51)" transform="translate(0,0)"></path>
<path d="M 1012.87 159.287 C 1022.7 158.221 1030.86 158.086 1040.6 160.377 C 1060.27 165.188 1077.29 177.483 1088.03 194.649 C 1106.7 224.835 1097.81 248.256 1090.82 280.305 L 1077.68 339.953 C 1061.45 413.804 1044.75 487.548 1027.56 561.18 C 1027.1 564.234 1027.18 565.387 1025.36 567.914 L 1024.08 567.757 C 1021.5 563.078 1009.21 506.826 1006.91 497.052 L 973.763 354.073 C 965.513 318.7 957.341 283.374 949.973 247.804 C 941.041 204.678 970.558 166.627 1012.87 159.287 z" fill="rgb(255,107,94)" transform="translate(0,0)"></path>
<path d="M 1197.02 772.478 C 1210.62 772.401 1224.22 772.396 1237.82 772.463 L 1237.86 1097.15 L 1197.69 1097.06 C 1190.12 1061.02 1179.97 1022.69 1171.31 986.739 C 1167.51 971 1160.39 938.397 1155.6 923.952 C 1155.18 920.708 1155.26 920.623 1154 917.655 L 1153.46 918.303 L 1154.13 919.268 L 1153.2 920.04 C 1152.61 932.039 1152.48 945.134 1152.86 957.172 C 1153.66 983.054 1151.97 1009.79 1153.11 1035.56 C 1152.5 1055.62 1152.85 1076.94 1152.86 1097.1 L 1111.98 1097.07 L 1111.99 772.599 L 1150.34 772.513 C 1164.62 830.087 1179.33 887.555 1194.45 944.915 C 1195.01 948.47 1195.02 948.5 1196.43 951.813 C 1198.48 944.792 1197.21 882.244 1196.9 870.898 C 1197.19 838.092 1197.23 805.285 1197.02 772.478 z" fill="rgb(255,107,94)" transform="translate(0,0)"></path>
<path d="M 462.261 772.35 L 507.687 772.574 L 507.804 906.136 L 536.205 906.137 L 536.127 772.605 L 581.938 772.658 L 581.979 1009.59 L 582.033 1066.84 C 582.039 1072.81 582.491 1090.75 581.377 1095.93 C 578.576 1097.94 577.589 1097.14 573.25 1097.13 L 536.112 1097.07 L 536.252 955.185 L 507.713 955.168 L 507.915 1097.08 L 462.416 1097.07 L 462.261 772.35 z" fill="rgb(255,107,94)" transform="translate(0,0)"></path>
<path d="M 1767.56 772.403 C 1786.59 772.345 1805.62 772.453 1824.65 772.727 L 1865.73 1097.15 L 1821.15 1097.12 C 1819.52 1077.53 1816.77 1055.79 1814.65 1036.12 C 1814.1 1033.53 1814.77 1034.66 1812.84 1032.57 C 1805.37 1031.26 1784.08 1031.97 1775.31 1032.09 C 1772.07 1052.69 1769.12 1076.33 1766.71 1097.08 L 1721.63 1097.19 L 1767.56 772.403 z" fill="rgb(255,159,69)" transform="translate(0,0)"></path>
<path d="M 1796.41 867.739 C 1801.06 906.19 1805.42 944.675 1809.5 983.192 L 1792.78 983.023 L 1780.3 983.045 C 1782.78 960.772 1786.33 937.621 1789.07 915.279 C 1790.5 903.612 1793.43 877.888 1796.41 867.739 z" fill="rgb(22,14,51)" transform="translate(0,0)"></path>
<path d="M 849.722 772.634 C 876.318 772.511 920.774 770.01 941.737 787.242 C 978.819 817.725 977.552 907.234 950.555 943.921 C 938.275 960.608 914.063 965.665 895.153 967.444 L 894.882 1021.5 L 894.874 1097.14 L 849.733 1097 L 849.722 772.634 z" fill="rgb(255,107,94)" transform="translate(0,0)"></path>
<path d="M 894.895 820.559 C 910.79 820.828 919.295 824.974 921.935 842.502 C 924.832 861.735 927.363 897.852 917.398 914.664 C 909.42 921.671 905.649 921.44 895.044 922.171 C 894.599 888.665 894.752 854.081 894.895 820.559 z" fill="rgb(22,14,51)" transform="translate(0,0)"></path>
<path d="M 373.796 770.293 C 447.236 767.198 437.512 838.555 437.486 888.92 L 395.795 888.774 C 395.87 874.106 398.021 826.822 391.488 821.035 C 362.774 795.605 369.339 866.212 369.324 871.388 L 369.199 940.977 L 369.229 1005.61 C 369.241 1011.44 363.176 1070.8 390.607 1051.65 C 398.622 1046.06 395.881 1002.3 395.75 988.75 L 396.015 987.035 C 399.141 984.781 431.082 985.749 437.282 985.789 C 437.553 1026.09 445.905 1088.6 393.049 1099.97 C 356.074 1107.93 330.234 1083.25 324.707 1048.28 C 322.196 1032.39 322.924 1017.07 322.951 1000.98 L 323.095 935.705 L 323.096 868.638 C 323.125 827.626 320.979 778.572 373.796 770.293 z" fill="rgb(255,107,94)" transform="translate(0,0)"></path>
<path d="M 1645 770.294 C 1702.52 765.285 1713.12 809.225 1714.38 855.788 C 1699.41 857.534 1684.04 859.157 1669.17 861.342 C 1669.15 848.783 1669.85 828.532 1661.56 818.59 C 1649.9 804.614 1642.05 820.588 1640.71 831.675 C 1636.4 867.576 1662.52 898.087 1678.27 928.119 C 1687.47 942.871 1693.67 956.885 1701.87 972.318 C 1719.79 1006.07 1719.85 1055 1695.22 1085.38 C 1686.03 1096.71 1669.41 1100.52 1654.68 1101.16 L 1652.65 1101.17 C 1594.48 1100.89 1589.84 1052.06 1590.23 1006.84 L 1634.69 1002.63 C 1634.64 1019.12 1633.03 1044.39 1645.91 1056.75 C 1651.45 1062.07 1661.48 1056.58 1664.17 1050.94 C 1680.1 1017.53 1653.85 976.509 1636.36 947.761 C 1607.74 900.715 1577.01 846.63 1608.99 792.527 C 1616.59 779.677 1630.59 772.976 1645 770.294 z" fill="rgb(255,159,69)" transform="translate(0,0)"></path>
<path d="M 1512.27 770.296 C 1567.63 766.132 1578.47 811.19 1579.92 855.63 L 1534.38 861.326 C 1534.29 854.557 1534.8 800.489 1511.55 816.536 C 1502.28 822.931 1504.87 853.651 1509.62 865.198 C 1523.47 898.894 1546.76 932.384 1563.22 965.235 C 1582.99 1002.3 1586.94 1049.55 1560.21 1084.8 C 1550.61 1097.46 1532.94 1100.67 1517.49 1101.18 C 1457.82 1100.12 1455 1053.01 1454.68 1006.57 C 1469.45 1005.4 1484.39 1003.92 1499.17 1002.58 C 1499.12 1004.06 1499.09 1005.54 1499.07 1007.02 C 1498.93 1016.98 1497.91 1059.86 1516.97 1058.89 C 1529.54 1058.25 1533.66 1040.32 1533.7 1029.05 C 1533.8 999.124 1515.7 973.806 1501.52 948.703 C 1471.97 901.231 1441.14 843.938 1475.86 790.048 C 1483.66 777.933 1498.16 772.352 1512.27 770.296 z" fill="rgb(255,159,69)" transform="translate(0,0)"></path>
<path d="M 765.64 317.917 C 766.186 318.663 770.467 338.266 771.274 341.316 C 777.554 365.051 788.608 377.438 803.863 395.825 L 839.433 438.633 C 882.018 489.409 924.297 540.44 966.267 591.725 C 952.025 606.833 948.466 619.473 947.016 639.45 L 936.397 630.547 C 894.594 595.606 853.394 558.956 812.319 522.875 C 788.397 498.694 751.712 476.762 736.374 445.905 C 712.871 398.619 727.148 350.169 765.64 317.917 z" fill="rgb(255,107,94)" transform="translate(0,0)"></path>
<path d="M 236.218 770.269 C 293.193 766.192 303.336 809.171 305.288 855.688 C 290.113 857.103 274.972 858.855 259.875 860.943 C 260.099 849.012 260.474 828.037 252.555 818.93 C 239.566 803.995 231.768 821.831 230.657 833.449 C 227.692 864.463 247.791 890.207 261.741 916.093 C 271.725 932.661 279.416 948.277 289.002 965.23 C 309.695 1001.82 313.283 1050.53 286.183 1084.87 C 276.665 1096.93 260.618 1100.27 245.566 1101.23 C 185.074 1100.86 181.092 1054.24 181.032 1006.28 C 195.598 1005.51 211.054 1003.7 225.653 1002.21 C 225.366 1014.7 222.799 1060.26 245.168 1058.24 C 248.779 1057.8 254.379 1053.32 255.672 1050.2 C 271.734 1012.2 238.882 967.127 220.203 934.574 C 196.704 893.622 175.341 855.511 192.633 806.736 C 200.246 785.261 213.619 774.757 236.218 770.269 z" fill="rgb(255,107,94)" transform="translate(0,0)"></path>
<path d="M 1281.21 317.478 C 1307.23 333.888 1324.73 374.064 1322.71 404.756 C 1319.27 456.942 1280 483.077 1243.73 515.29 L 1113.91 628.5 L 1100.88 640.143 L 1100.9 638.502 C 1100.97 619.554 1094.74 605.144 1081.45 591.849 C 1094.21 578.449 1113.62 553.131 1125.9 538.229 C 1152.94 505.898 1179.82 473.431 1206.53 440.829 C 1224.87 418.438 1244.83 396.201 1262.37 373.229 C 1273.38 358.798 1279.87 335.451 1281.21 317.478 z" fill="rgb(255,107,94)" transform="translate(0,0)"></path>
<path d="M 1023.11 772.49 C 1045.25 772.362 1067.39 772.393 1089.53 772.583 C 1089.64 789.036 1089.64 805.49 1089.53 821.943 C 1072.4 821.973 1055.28 821.875 1038.16 821.651 L 1038.11 905.923 L 1077.93 905.903 L 1077.91 956.482 L 1038.11 956.489 L 1038.07 1049.61 L 1069.63 1049.5 L 1089.43 1049.46 L 1089.1 1097.06 L 991.991 1097.11 L 991.969 772.829 L 1023.11 772.49 z" fill="rgb(255,107,94)" transform="translate(0,0)"></path>
<path d="M 619.941 772.495 C 649.913 772.301 679.885 772.27 709.858 772.403 L 709.976 821.932 L 658.17 821.793 C 658.024 849.849 658.072 877.906 658.313 905.962 L 698.09 905.912 L 698.078 956.563 L 658.262 956.364 L 658.247 1049.46 L 673.756 1049.52 L 709.976 1049.44 L 709.95 1097.14 L 612.753 1097.02 L 612.813 879.5 L 612.744 811.314 C 612.733 801.152 612.203 783.699 613.008 774.007 C 615.33 771.807 615.665 772.602 619.941 772.495 z" fill="rgb(255,107,94)" transform="translate(0,0)"></path>
<path d="M 889.478 235.294 L 898.793 234.73 C 902.335 263.667 920.93 323.101 929.802 353.886 C 950.666 425.317 971.157 496.856 991.274 568.5 L 961.423 528.41 C 931.437 489.604 901.843 450.495 872.647 411.091 C 855.954 388.771 823.485 351.748 819.131 325.807 C 815.818 305.783 820.75 285.271 832.802 268.941 C 846.667 249.798 866.378 238.883 889.478 235.294 z" fill="rgb(255,107,94)" transform="translate(0,0)"></path>
<path d="M 995.24 1155.93 C 1035.54 1155.95 1075.83 1150.93 1082.2 1203.49 C 1086.37 1237.95 1084.63 1272.09 1084.88 1306.77 C 1085.08 1333.27 1085.03 1360.37 1068.78 1382.61 C 1050.47 1401.75 1019.78 1397.94 995.254 1397.83 L 995.24 1155.93 z" fill="rgb(255,107,94)" transform="translate(0,0)"></path>
<path d="M 1029.04 1192.76 C 1032.77 1192.86 1036.54 1192.96 1039.99 1194.53 C 1043.69 1196.21 1046.56 1199.79 1047.79 1203.62 C 1052.16 1217.21 1051.51 1319.17 1049.58 1337.35 C 1048.84 1344.29 1047.36 1349.83 1044.23 1356.14 C 1040.55 1359.34 1034.22 1363.97 1029.61 1360.53 C 1028.22 1345.94 1029.11 1316.45 1029.14 1300.91 L 1029.04 1192.76 z" fill="rgb(22,14,51)" transform="translate(0,0)"></path>
<path d="M 1150.23 234.749 C 1167.52 235.26 1184.22 241.104 1198.06 251.48 C 1223.34 270.432 1238.73 310.397 1225.72 339.113 C 1215.64 361.364 1186.71 395.376 1171.46 415.498 L 1093.05 519.972 L 1056.79 568.781 C 1078.97 498.355 1099.54 423.214 1119.84 351.949 L 1136 295.688 C 1142.05 274.943 1148.52 256.412 1150.23 234.749 z" fill="rgb(255,107,94)" transform="translate(0,0)"></path>
<path d="M 1269.82 772.691 L 1368.18 772.735 L 1367.93 821.706 C 1350.48 821.971 1332.63 821.836 1315.14 821.894 L 1315 904.725 L 1356.31 904.633 L 1356.18 952.476 L 1314.78 952.847 L 1314.69 1000.75 L 1314.84 1097.05 L 1269.79 1097.17 L 1269.82 772.691 z" fill="rgb(255,159,69)" transform="translate(0,0)"></path>
<path d="M 1010.73 119.344 C 1026.96 117.699 1043.36 119.267 1058.98 123.957 C 1087.56 132.961 1111.43 152.865 1125.43 179.354 C 1147.11 221.102 1135.95 250.587 1124.01 292.341 L 1103.39 364.349 L 1065.43 496.341 C 1059.55 516.663 1053.69 536.993 1047.78 557.305 C 1046.66 561.181 1045.26 568.332 1041.7 570.054 L 1039.67 569.117 C 1038.41 564.89 1101.34 291.9 1108.19 259.296 C 1113.94 231.939 1113.66 210.58 1097.65 186.43 C 1083.75 165.475 1063.28 152.164 1038.82 147.148 C 1021.73 145.672 1008.92 145.499 992.529 151.935 C 962.944 163.294 941.683 189.596 936.778 220.906 C 933.004 245.051 951.084 310.704 957.243 337.744 L 999.328 520.208 C 1001.85 531.003 1011.31 561.581 1007.84 569.439 L 1006.25 569.585 C 1001.97 564.437 986.381 506.318 983.231 495.335 L 942.896 352.994 L 922.202 280.821 C 919.226 270.273 913.808 252.55 912.256 242.122 C 908.331 215.757 916.782 184.812 932.997 163.765 C 953.117 137.651 978.446 123.732 1010.73 119.344 z" fill="rgb(33,230,193)" transform="translate(0,0)"></path>
<path d="M 938.566 1284.87 C 944.436 1275.14 935.115 1170.59 940.749 1156.04 L 971.824 1155.97 L 971.772 1397.66 L 941.624 1397.85 C 935.233 1371.86 928.995 1345.83 922.91 1319.76 C 919.284 1304.48 915.151 1285.56 910.617 1270.77 C 909.769 1266.83 909.325 1264.77 907.986 1261.01 L 907.84 1277.64 L 907.883 1397.84 L 876.757 1397.85 L 876.947 1155.93 L 906.086 1156.24 C 916.507 1199.22 927.334 1242.1 938.566 1284.87 z" fill="rgb(255,107,94)" transform="translate(0,0)"></path>
<path d="M 938.566 1284.87 C 944.436 1275.14 935.115 1170.59 940.749 1156.04 C 941.441 1183.77 940.906 1212.7 941.038 1240.52 C 941.089 1251.4 941.741 1278.57 940.454 1288 L 939.593 1288.6 C 939.173 1287.27 938.748 1286.23 938.566 1284.87 z" fill="rgb(125,27,47)" transform="translate(0,0)"></path>
<path d="M 655.175 1156.21 C 678.887 1156.07 712.682 1152.79 729.44 1172.65 C 749.535 1196.45 750.86 1258.1 726.218 1278.54 C 733.171 1317.59 739.226 1358.57 745.534 1397.81 L 712.387 1397.98 C 709.459 1383.51 707.261 1366.58 705.055 1351.82 C 704.053 1345.25 697.1 1295.8 695.453 1293.34 C 692.276 1293.38 693.83 1293 690.858 1295.18 C 687.053 1302.65 689.049 1320.27 689.087 1329.5 L 689.198 1397.83 L 655.159 1397.68 L 655.175 1156.21 z" fill="rgb(255,107,94)" transform="translate(0,0)"></path>
<path d="M 689.11 1191.59 C 693.215 1191.8 697.417 1191.81 701.003 1194 C 716.733 1203.59 713.018 1240.03 705.279 1252.92 C 701.298 1257.07 698.414 1259.92 692.522 1260.44 C 691.442 1260.54 689.647 1260.33 689.601 1259.81 C 688.427 1246.72 689.019 1202.53 689.11 1191.59 z" fill="rgb(22,14,51)" transform="translate(0,0)"></path>
<path d="M 733.075 772.63 L 778.685 772.789 L 778.611 1054.45 C 796.797 1054.7 814.984 1054.77 833.17 1054.66 L 833.149 1097.08 L 733.039 1097.1 L 733.075 772.63 z" fill="rgb(255,107,94)" transform="translate(0,0)"></path>
<path d="M 587.318 1723.92 L 620.516 1723.91 C 626.797 1755.86 632.638 1787.9 638.038 1820.01 C 644.826 1788.41 649.566 1755.77 655.764 1723.9 L 689.626 1724.04 L 689.4 1931.09 L 662.474 1930.94 C 659.7 1912.15 664.907 1815.54 660.375 1809.04 C 658.062 1825.47 645.972 1923.51 642.714 1929.27 C 639.453 1931.53 640.1 1930.77 635.312 1930.83 C 629.954 1927.15 619.643 1827.58 616.64 1812.05 C 616.421 1809.62 616.35 1807.53 616.258 1805.1 C 615.263 1803.83 614.28 1802.59 613.312 1801.3 C 614.525 1810.59 613.854 1825.32 613.97 1835.07 C 614.241 1857.98 613.373 1881.39 614.07 1904.29 C 613.814 1913.15 613.762 1922.03 613.912 1930.9 L 587.203 1930.98 L 587.318 1723.92 z" fill="rgb(253,124,191)" transform="translate(0,0)"></path>
<path d="M 662.192 1793.3 C 664.661 1817.59 662.181 1852.68 662.994 1878.24 C 663.237 1885.89 663.283 1924.73 662.474 1930.94 C 659.7 1912.15 664.907 1815.54 660.375 1809.04 C 660.96 1803.9 661.495 1798.4 662.192 1793.3 z" fill="rgb(117,47,95)" transform="translate(0,0)"></path>
<path d="M 613.312 1801.3 C 613.471 1800.3 613.6 1798.29 614.341 1797.57 C 615.369 1797.46 616.115 1804.22 616.258 1805.1 C 615.263 1803.83 614.28 1802.59 613.312 1801.3 z" fill="rgb(177,87,149)" transform="translate(0,0)"></path>
<path d="M 788.102 1156.01 L 830.501 1156.11 C 832.469 1177.19 836.067 1198.47 838.515 1219.51 C 845.38 1278.49 855.315 1338.94 861.372 1397.84 L 828.312 1397.94 C 827.051 1383.01 825.13 1367.25 823.622 1352.24 L 822.969 1350.11 C 819.093 1347.73 799.867 1348.71 794.129 1348.79 L 787.625 1397.88 L 754.491 1397.94 C 755.722 1387.21 757.431 1376.13 759.025 1365.43 C 769.396 1295.76 777.683 1225.66 788.102 1156.01 z" fill="rgb(255,107,94)" transform="translate(0,0)"></path>
<path d="M 809.28 1226.71 C 811.451 1234.82 812.574 1252.51 813.883 1262 C 815.785 1277.65 817.304 1293.36 818.985 1309.03 C 819.509 1313.91 812.586 1311.98 808.438 1311.95 C 806.757 1311.94 798.953 1312.34 798.74 1311.11 C 798.022 1306.95 800.453 1292.88 800.867 1289 L 803.84 1262.99 C 804.681 1255.53 805.795 1248.4 806.803 1240.99 L 807.76 1234.45 C 808.273 1230.92 808.331 1230.15 809.28 1226.71 z" fill="rgb(22,14,51)" transform="translate(0,0)"></path>
<path d="M 852.967 1723.86 C 869.417 1723.69 899.475 1721.66 912.307 1732.72 C 932.843 1750.44 929.325 1801.79 929.231 1825.8 C 929.121 1854.04 932.396 1894.78 916.242 1917.71 C 899.922 1934.68 874.735 1931.12 852.99 1930.93 L 852.967 1723.86 z" fill="rgb(253,124,191)" transform="translate(0,0)"></path>
<path d="M 881.544 1755.57 C 884.01 1755.69 888.79 1756.08 891.008 1756.89 C 894.011 1758 896.36 1760.4 897.418 1763.42 C 902.094 1776.63 899.61 1858.07 899.148 1877.63 C 899.02 1883.08 897.103 1889.53 894.866 1894.62 C 891.756 1897.6 886.857 1900.81 882.572 1898.89 C 881.387 1895.03 881.773 1861.1 881.771 1854.95 C 881.868 1821.82 881.792 1788.69 881.544 1755.57 z" fill="rgb(22,14,51)" transform="translate(0,0)"></path>
<path d="M 1388.55 772.695 L 1433.05 772.744 L 1432.98 1097.21 L 1388.44 1097.11 L 1388.55 772.695 z" fill="rgb(255,159,69)" transform="translate(0,0)"></path>
<path d="M 1117.79 1723.88 C 1130.75 1723.75 1143.65 1723.32 1156.57 1724.33 C 1193.64 1727.25 1199.76 1770.8 1190.29 1799.29 C 1187.13 1808.81 1182.27 1814.37 1174.6 1820.26 C 1198.91 1839.8 1197.92 1877.87 1189.22 1904.96 C 1173.84 1936.47 1148.21 1930.95 1117.82 1930.85 L 1117.79 1723.88 z" fill="rgb(253,124,191)" transform="translate(0,0)"></path>
<path d="M 1146.3 1835.61 C 1162.4 1838.33 1163.79 1844.68 1165.36 1860.99 C 1166.44 1872.29 1165.78 1884.93 1160.33 1895.13 C 1158.72 1896.37 1146.62 1902.77 1146.53 1898.8 C 1146.02 1877.88 1146.2 1856.58 1146.3 1835.61 z" fill="rgb(22,14,51)" transform="translate(0,0)"></path>
<path d="M 1146.49 1752.34 C 1163.43 1754.13 1165.23 1759.87 1166.09 1777 C 1166.56 1786.31 1164.93 1793.49 1160.33 1801.57 C 1156.49 1805.21 1154.48 1807 1148.98 1807.43 C 1147.98 1807.51 1146.31 1807.01 1146.28 1806.62 C 1145.6 1798.32 1145.31 1757.17 1146.49 1752.34 z" fill="rgb(22,14,51)" transform="translate(0,0)"></path>
<path d="M 622.918 1450.25 C 665.862 1448.51 662.893 1490.58 662.252 1520.8 C 661.977 1533.76 660.31 1544.23 651.051 1553.99 C 665.624 1571.66 662.103 1593.71 662.338 1615.09 C 662.632 1641.75 660.05 1659.94 631.074 1666.05 C 584.387 1667.07 591.701 1628.51 590.948 1595.38 C 590.563 1578.4 590.535 1567.09 603.013 1554.3 C 597.209 1549.51 592.419 1540.57 592.126 1533.08 C 590.945 1502.86 582.031 1456.01 622.918 1450.25 z" fill="rgb(253,124,191)" transform="translate(0,0)"></path>
<path d="M 622.802 1570.69 C 627.809 1570.68 634.024 1570.47 634.202 1577.49 C 634.641 1594.75 634.548 1612.26 634.031 1629.52 C 633.958 1631.98 631.482 1634.53 630.037 1636.27 C 625.944 1636.24 619.549 1636.08 619.242 1630.01 C 618.355 1612.53 619.325 1594.6 619.297 1577.06 C 619.294 1575.13 621.77 1572.1 622.802 1570.69 z" fill="rgb(22,14,51)" transform="translate(0,0)"></path>
<path d="M 622.842 1480.79 C 628.615 1480.91 633.853 1480.68 634.106 1488.49 C 634.049 1498.55 634.479 1508.7 634.257 1518.75 C 634.016 1529.66 636.395 1533.53 629.349 1541.7 C 624.474 1541.47 619.398 1539.53 619.601 1534.13 C 620.101 1520.84 615.398 1491.26 622.842 1480.79 z" fill="rgb(22,14,51)" transform="translate(0,0)"></path>
<path d="M 1411.6 1153.32 C 1452.99 1151.83 1458.3 1185.23 1459.7 1217.83 C 1448.49 1219.42 1437.23 1220.66 1425.93 1221.56 C 1425.94 1210.9 1427.54 1188.79 1413.5 1186.12 C 1411.48 1186.53 1409.17 1187.09 1407.94 1188.97 C 1390.92 1215.1 1429.21 1260.51 1440.21 1283.67 C 1448.83 1301.01 1460.08 1320.43 1459.69 1340.45 C 1458.99 1376.4 1449.98 1400.94 1409.59 1400.95 C 1368.19 1396.37 1366.75 1362.68 1366.75 1329.38 C 1377.89 1328.6 1389 1327.56 1400.09 1326.25 C 1399.86 1338.35 1398.34 1356.19 1406.92 1365.9 C 1411.35 1370.92 1418.36 1368.67 1421.9 1363.79 C 1430.46 1351.87 1426.16 1333.53 1420.9 1321.12 C 1402.82 1278.51 1360.88 1240.88 1372.41 1190.68 C 1377.68 1167.69 1387.64 1156.41 1411.6 1153.32 z" fill="rgb(33,230,193)" transform="translate(0,0)"></path>
<path d="M 488.805 1154.21 C 533.981 1151 539.395 1180.95 541.969 1217.72 L 507.931 1222.01 C 508.078 1211.28 508.853 1185.85 493.436 1186.25 C 483.399 1192.12 485.682 1211.05 488.789 1220.48 C 503.276 1264.45 547.725 1303.7 541.248 1352.91 C 537.644 1380.29 529.396 1396.55 500.554 1401.08 C 451.919 1402.25 449.057 1368.01 448.554 1330.21 L 482.279 1326.55 C 482.043 1337.58 481.197 1371.17 498.821 1369.06 C 500.66 1368.06 502.777 1366.84 503.732 1364.81 C 516.954 1336.79 496.549 1309.33 483.301 1285.89 C 473.916 1269.29 459.675 1248.07 455.567 1229.34 C 449.05 1199.63 453.766 1162.5 488.805 1154.21 z" fill="rgb(255,107,94)" transform="translate(0,0)"></path>
<path d="M 1289.68 1723.85 C 1307.82 1723.79 1336.58 1720.76 1349.94 1734.31 C 1370.52 1755.2 1371.38 1809.48 1350.6 1829.97 C 1355.96 1863.63 1361.15 1897.31 1366.17 1931.02 L 1338.26 1930.91 C 1335.78 1917.53 1333.93 1902.79 1331.98 1889.22 C 1331.12 1883.02 1330.32 1875.37 1329.24 1869.34 C 1328.26 1863.9 1327.28 1844.95 1323.99 1842.28 C 1320.36 1842.69 1321.52 1842.06 1318.87 1844.01 C 1318.22 1851.77 1318.67 1866.3 1318.69 1874.5 L 1318.81 1930.92 L 1289.83 1930.92 L 1289.68 1723.85 z" fill="rgb(253,124,191)" transform="translate(0,0)"></path>
<path d="M 1318.5 1753.73 C 1338.58 1756.51 1337.21 1769.1 1337.52 1786.95 C 1337.66 1794.72 1336.06 1801.39 1332.22 1808.17 C 1329.59 1810.52 1322.99 1815.22 1319.29 1813.52 C 1318.27 1812.13 1318.56 1760.4 1318.5 1753.73 z" fill="rgb(22,14,51)" transform="translate(0,0)"></path>
<path d="M 1025.17 1723.83 C 1042.6 1723.83 1072.42 1721.05 1084.92 1733.7 C 1106.55 1755.58 1106.94 1807.66 1086.29 1829.84 C 1089.49 1859.62 1097.05 1900.5 1101.77 1930.91 L 1073.52 1930.95 C 1071.85 1917.87 1070.01 1904.8 1068 1891.76 C 1067.1 1886.17 1061.2 1844.89 1059.95 1842.89 C 1057.13 1842.46 1057.33 1842.42 1054.68 1843.47 C 1053.51 1851.13 1053.94 1867.39 1053.95 1875.7 L 1054.06 1930.89 L 1025.42 1930.91 L 1025.17 1723.83 z" fill="rgb(253,124,191)" transform="translate(0,0)"></path>
<path d="M 1054.18 1753.69 C 1078.14 1756.47 1073.28 1777.36 1072.26 1796.51 C 1072.02 1801.23 1069.86 1805.17 1067.43 1809.14 C 1063.96 1811.62 1060.55 1813.82 1055.93 1814.08 C 1055.39 1814.11 1054.45 1813.63 1054.44 1813.45 C 1053.75 1800.23 1054.12 1764.88 1054.18 1753.69 z" fill="rgb(22,14,51)" transform="translate(0,0)"></path>
<path d="M 747.253 1451.97 L 783.785 1451.99 C 788.646 1484.71 792.535 1519.99 796.608 1552.96 C 801.4 1589.93 805.942 1626.93 810.233 1663.96 L 781.281 1663.99 C 780.034 1650.33 778.575 1636.68 776.902 1623.06 L 775.807 1621.67 C 770.035 1620.72 757.739 1621.23 751.41 1621.3 C 749.928 1635.37 747.966 1649.92 746.267 1664.01 L 717.417 1663.93 C 718.313 1653.61 720.164 1642.38 721.746 1632.08 C 730.924 1572.33 737.508 1511.6 747.253 1451.97 z" fill="rgb(255,243,226)" transform="translate(0,0)"></path>
<path d="M 764.365 1517.37 L 765.504 1517.47 C 769.167 1540.95 770.433 1565.37 773.818 1588.96 L 755.466 1588.96 C 757.03 1574.28 758.813 1559.62 760.814 1545 C 761.99 1535.77 763.309 1526.61 764.365 1517.37 z" fill="rgb(22,14,51)" transform="translate(0,0)"></path>
<path d="M 764.365 1517.37 C 764.505 1516.5 764.477 1515.78 765.019 1515.13 L 765.143 1515.08 C 765.812 1515.42 765.508 1517.16 765.504 1517.47 L 764.365 1517.37 z" fill="rgb(130,117,120)" transform="translate(0,0)"></path>
<path d="M 1283.28 1155.95 L 1357.21 1155.84 L 1357.13 1193.02 L 1317.97 1192.94 L 1317.98 1255.62 L 1347.79 1255.4 L 1347.83 1293.68 L 1317.79 1293.74 C 1317.86 1302.57 1316.71 1357.36 1318.99 1361.09 L 1322.75 1361.29 L 1357.46 1361.32 L 1357.18 1397.86 L 1283.23 1397.99 L 1283.28 1155.95 z" fill="rgb(33,230,193)" transform="translate(0,0)"></path>
<path d="M 1193.42 1156.01 L 1266.89 1155.82 L 1266.86 1193.08 L 1227.62 1193.07 L 1227.4 1255.62 L 1257.36 1255.63 L 1257.65 1293.93 L 1227.64 1293.96 C 1227.68 1302.26 1226.45 1358.1 1228.99 1361.11 L 1233.75 1361.3 L 1266.92 1361.52 L 1267.03 1397.79 L 1193.42 1397.98 L 1193.42 1156.01 z" fill="rgb(33,230,193)" transform="translate(0,0)"></path>
<path d="M 1324.23 1451.95 L 1353.07 1452 L 1353.13 1481.5 L 1353.25 1577.52 C 1353.32 1608.62 1361.48 1665.12 1316.3 1666.56 C 1297.32 1667.17 1281.48 1652.63 1279.32 1633.98 C 1277 1614.01 1277.95 1592.47 1277.96 1572.19 L 1278.04 1451.96 L 1306.85 1452.07 L 1307.05 1572.16 C 1307.06 1589.22 1307.05 1606.45 1306.67 1623.53 C 1306.8 1626.33 1307.44 1631.54 1309.31 1633.73 C 1314.56 1639.87 1323.56 1635.63 1323.9 1627.67 C 1324.71 1608.67 1324.26 1589.5 1324.24 1570.45 L 1324.23 1451.95 z" fill="rgb(255,243,226)" transform="translate(0,0)"></path>
<path d="M 822.667 1451.71 L 851.771 1451.87 L 851.774 1569.48 C 851.755 1588.71 851.663 1607.95 851.897 1627.18 C 851.948 1631.42 854.84 1635.74 859.257 1636.25 C 861.75 1636.53 864.233 1635.64 865.978 1633.84 C 870.53 1629.15 868.975 1577.42 868.975 1567.13 L 868.901 1451.88 L 897.378 1452 L 897.345 1483.91 L 897.525 1578.89 C 897.646 1611.04 905.712 1665.98 860.491 1666.18 C 842.085 1666.26 826.656 1654.7 824.207 1636.14 C 821.536 1615.89 822.723 1593.07 822.737 1572.62 L 822.667 1451.71 z" fill="rgb(255,243,226)" transform="translate(0,0)"></path>
<path d="M 1012.09 1451.97 L 1040.84 1452.07 L 1040.88 1574.87 C 1040.93 1591.82 1040.86 1608.76 1040.7 1625.7 C 1039.9 1638.48 1056.48 1640.26 1057.22 1628.72 C 1058.4 1610.2 1057.84 1589.81 1057.82 1571.3 L 1057.61 1451.98 L 1085.87 1452.01 L 1085.84 1481.5 L 1085.93 1579.08 C 1085.94 1597.5 1086.53 1615.03 1084.69 1633.25 C 1081.18 1677.08 1019.06 1677.58 1013.15 1634.9 C 1010.52 1615.91 1011.93 1593.18 1011.95 1573.73 L 1012.09 1451.97 z" fill="rgb(255,243,226)" transform="translate(0,0)"></path>
<path d="M 708.928 1723.9 L 737.473 1723.88 C 737.409 1741.12 735.785 1890.78 739.118 1898.28 C 740.136 1900.58 742.381 1903.19 744.917 1903.95 C 747.093 1904.6 748.81 1904.8 750.662 1903.3 C 753.726 1900.81 754.547 1894.52 754.865 1890.87 C 756.377 1873.52 754.913 1854.77 754.914 1837.25 L 754.929 1723.92 L 782.887 1723.93 L 782.871 1753.5 L 782.935 1847.26 C 782.949 1878.37 791.253 1934.79 745.537 1933.89 C 700.089 1933 708.92 1872.91 708.95 1842.01 L 708.928 1723.9 z" fill="rgb(253,124,191)" transform="translate(0,0)"></path>
<path d="M 944.332 1451.3 C 997.823 1445.98 991.631 1492.77 991.51 1529.9 L 963.206 1529.84 C 963.329 1518.88 966.583 1486.89 956.743 1480.68 C 951.583 1479.74 946.489 1483.2 946.406 1488.33 C 945.66 1534.89 945.935 1581.66 946.204 1628.24 C 946.295 1643.88 963.462 1644.55 963.23 1625.3 C 963.085 1613.18 963.295 1599.46 963.237 1587.18 L 952.006 1587.11 L 952.038 1565.75 L 952.464 1563.78 C 957.053 1561.93 985.378 1562.75 992 1562.82 L 992.078 1663.95 L 974.595 1663.89 L 971.238 1654.12 C 947.065 1681.63 917.327 1660.65 917.326 1627.96 C 917.324 1581.38 916.106 1534.55 917.605 1487.98 C 918.22 1468.91 926.391 1457.16 944.332 1451.3 z" fill="rgb(255,243,226)" transform="translate(0,0)"></path>
<path d="M 1411.35 1722.37 C 1462.02 1719.29 1455.35 1766.37 1455.21 1801.97 L 1427.26 1802 C 1427.31 1789.12 1427.7 1776.09 1427.17 1763.22 C 1427.01 1759.42 1426.76 1755.57 1423.38 1753.15 C 1421.5 1751.79 1418.97 1751.44 1416.73 1751.98 C 1414.53 1752.52 1411.94 1754.23 1410.93 1756.33 C 1408.12 1762.14 1408.93 1882.6 1409.89 1897.22 C 1410.05 1899.63 1410.27 1901.52 1411.44 1903.67 C 1412.66 1905.9 1414.55 1907.72 1417.16 1908.14 C 1419.5 1908.53 1421.58 1908.07 1423.34 1906.45 C 1430.3 1900.06 1427.54 1866.22 1427.4 1855.88 C 1424.66 1855.96 1419.12 1856.52 1417.59 1854.12 C 1414.52 1849.31 1416.33 1837.27 1416.36 1831.2 C 1428.99 1830.84 1443.11 1831.13 1455.86 1831.13 L 1455.85 1931.18 L 1438.63 1931.18 C 1437.73 1928.67 1436.66 1924.12 1435.91 1921.39 C 1430.93 1927.1 1423.64 1934.46 1415.82 1934.58 C 1378.32 1935.12 1380.77 1894.64 1381.3 1869.72 C 1382.1 1831.83 1380.2 1798.01 1381.74 1760.77 C 1382.58 1740.54 1391.08 1726.25 1411.35 1722.37 z" fill="rgb(253,124,191)" transform="translate(0,0)"></path>
<path d="M 547.85 1156.05 L 641.279 1155.95 L 641.231 1193.13 L 611.949 1193.11 L 612.112 1368.5 L 612.181 1397.9 L 577.31 1397.95 L 577.287 1193.47 L 547.874 1193.3 L 547.85 1156.05 z" fill="rgb(255,107,94)" transform="translate(0,0)"></path>
<path d="M 1107.13 1156.02 L 1179.34 1156.03 L 1179.48 1193.22 L 1140.63 1193.06 L 1140.67 1255.06 L 1170.82 1255.11 L 1170.79 1291.03 L 1140.36 1290.99 L 1140.26 1329.5 L 1140.17 1397.87 L 1107.11 1397.85 L 1107.13 1156.02 z" fill="rgb(33,230,193)" transform="translate(0,0)"></path>
<path d="M 1144.22 193.144 C 1206.57 192.91 1263.95 239.343 1268.97 302.72 C 1270.44 321.313 1266.64 339.945 1258.01 356.476 C 1251.14 369.477 1239.27 382.584 1229.69 394.097 L 1194.35 436.492 L 1082.18 571.66 C 1079.08 575.437 1077.22 579.406 1073.06 581.751 C 1068.74 581.839 1069.64 581.467 1065.25 578.903 C 1074.44 567.435 1084.67 552.443 1093.85 540.318 L 1172.62 435.604 L 1207.49 389.118 C 1225.18 365.794 1240.17 350.54 1242.07 320.004 C 1243.56 296.009 1235.34 272.424 1219.24 254.563 C 1200.11 233.445 1178.19 223.919 1150.08 222.406 C 1148.6 210.845 1147.35 204.383 1144.22 193.144 z" fill="rgb(253,124,191)" transform="translate(0,0)"></path>
<path d="M 891.677 193.392 C 894.553 192.986 901.17 192.981 904.347 192.885 C 901.309 203.286 900.122 211.23 898.83 221.921 C 852.556 225.677 815.48 253.067 806.88 300.383 C 798.899 344.294 828.579 373.547 852.823 406.112 C 879.179 441.672 905.795 477.039 932.668 512.21 C 943.823 526.627 954.869 541.128 965.806 555.71 C 969.791 560.957 982.25 574.165 981.165 580.157 C 978.923 582.461 978.848 582.164 975.594 582.745 L 974.18 581.28 L 852.889 435.516 C 839.577 419.55 802.58 377 793.28 361.695 C 785.651 349.245 780.962 335.218 779.571 320.682 C 772.64 254.421 827.761 199.995 891.677 193.392 z" fill="rgb(253,124,191)" transform="translate(0,0)"></path>
<path d="M 1403.78 1450.18 C 1441.19 1447.68 1447.6 1477.13 1448.15 1507.05 C 1438.41 1508.27 1428.64 1509.36 1418.87 1510.32 C 1418.74 1500.84 1419.94 1480.37 1407.14 1479.3 C 1405.67 1479.87 1403.97 1480.56 1403.06 1482.04 C 1387.91 1506.66 1426.96 1551.7 1436.79 1575.07 C 1441.61 1585.72 1448.17 1598.17 1448.23 1610.31 C 1448.39 1640.7 1441.95 1664.96 1407.27 1666.27 C 1370.15 1664.85 1367.2 1633.36 1367.36 1604.06 L 1396.4 1600.66 C 1396.3 1609.09 1395.07 1638.73 1410.87 1638.86 C 1412.52 1638.75 1414.49 1636.78 1415.08 1635.31 C 1431.54 1593.85 1381.06 1555.57 1373.46 1516.41 C 1367.94 1487.99 1371.95 1457.08 1403.78 1450.18 z" fill="rgb(255,243,226)" transform="translate(0,0)"></path>
<path d="M 1135.87 1450.22 C 1174.08 1447.91 1179.16 1476.1 1180.62 1506.7 C 1170.94 1508.07 1160.99 1509.2 1151.27 1510.41 C 1151.21 1501.82 1152 1479.39 1139.34 1478.71 C 1137.93 1479.31 1136.3 1479.98 1135.52 1481.5 C 1122.98 1511.29 1155.85 1545.93 1167.7 1572.02 C 1177.05 1589.75 1183.42 1606.32 1179.74 1626.74 C 1175.61 1649.64 1169.05 1662.87 1144.12 1666.24 C 1103.06 1667.11 1100.26 1635.96 1100.25 1603.94 L 1129.03 1600.65 C 1128.89 1610.24 1127.8 1640.67 1143.81 1638.61 C 1144.76 1637.88 1146.58 1636.51 1147.11 1635.36 C 1157.54 1612.44 1144.7 1590.14 1131.93 1569.68 C 1111.83 1537.46 1087.33 1493.27 1117.69 1458.62 C 1121.83 1453.9 1129.74 1451.48 1135.87 1450.22 z" fill="rgb(255,243,226)" transform="translate(0,0)"></path>
<path d="M 1465.87 1156.07 L 1556.56 1155.87 L 1556.57 1192.92 L 1528.07 1193.06 L 1527.9 1368.5 L 1527.78 1397.84 L 1495.17 1397.85 L 1494.9 1193 L 1466 1192.95 L 1465.87 1156.07 z" fill="rgb(33,230,193)" transform="translate(0,0)"></path>
<path d="M 948.746 1723.72 C 968.442 1724.19 990.438 1723.78 1010.29 1723.79 L 1010.23 1754.86 L 977.299 1754.8 L 977.224 1808.6 C 985.915 1808.37 994.203 1808.53 1002.88 1808.7 L 1002.94 1841.8 L 977.164 1841.72 C 977.116 1850.05 976.205 1894.09 978.212 1898.92 L 980.752 1899.5 C 990.621 1899.17 1000.77 1899.23 1010.67 1899.17 L 1010.59 1930.93 L 948.795 1931.03 L 948.746 1723.72 z" fill="rgb(253,124,191)" transform="translate(0,0)"></path>
<path d="M 1212.24 1723.8 L 1273.22 1723.87 L 1273.52 1754.9 L 1240.87 1754.97 L 1240.91 1808.5 C 1249.36 1808.46 1257.82 1808.46 1266.28 1808.51 L 1266.25 1841.76 L 1241.01 1841.85 C 1241.03 1850.94 1239.7 1893.23 1241.9 1898.65 L 1244.75 1899.16 L 1273.16 1899.15 L 1273.19 1930.91 L 1212.42 1930.89 L 1212.24 1723.8 z" fill="rgb(253,124,191)" transform="translate(0,0)"></path>
<path d="M 1185.24 1451.83 L 1266.95 1452.03 L 1266.95 1485.12 L 1241 1485.19 L 1241 1638.5 L 1240.96 1663.9 L 1211.12 1663.98 L 1211.16 1485.02 L 1185.27 1485.1 L 1185.24 1451.83 z" fill="rgb(255,243,226)" transform="translate(0,0)"></path>
<path d="M 802.888 1723.86 L 831.709 1723.92 L 831.853 1930.93 L 802.859 1930.94 L 802.888 1723.86 z" fill="rgb(253,124,191)" transform="translate(0,0)"></path>
<path d="M 865.028 586.37 C 873.282 591.427 893.498 610.146 901.907 617.325 C 929.405 640.802 956.131 665.919 984.787 688.014 L 927.862 688.166 C 905.975 688.207 871.156 691.879 866.545 660.782 C 863.193 638.169 864.93 609.788 865.028 586.37 z" fill="rgb(255,107,94)" transform="translate(0,0)"></path>
<path d="M 1181.77 586.006 C 1183.57 588.126 1182.7 638.063 1182.66 645.126 C 1182.4 690.391 1152.23 688.068 1120.66 688.041 L 1066.09 688.039 L 1065.26 687.265 C 1065.9 685.985 1172.91 593.393 1181.77 586.006 z" fill="rgb(255,107,94)" transform="translate(0,0)"></path>
<path d="M 992.19 636.406 L 993.238 636.328 C 997.735 637.471 1020.75 637.128 1026.78 637.118 C 1047.42 637.033 1068.07 637.066 1088.71 637.217 C 1088.02 639.24 1087.26 641.235 1086.42 643.197 C 1065.29 692.978 997.302 699.557 967.307 654.418 C 963.628 648.881 961.469 643.14 959.118 636.951 C 967.529 637.052 984.377 637.551 992.19 636.406 z" fill="rgb(255,159,69)" transform="translate(0,0)"></path>
<path d="M 960.217 624.711 C 968.499 605.733 979.089 592.922 998.975 585.096 C 1016.33 578.341 1035.66 578.809 1052.66 586.396 C 1067.21 592.875 1079.75 605.033 1085.44 620.022 C 1086.02 621.55 1086.57 623.093 1087.07 624.649 C 1059.23 624.887 1031.39 624.98 1003.55 624.929 C 1001.1 632.619 1000.71 633.353 993.238 636.328 L 992.19 636.406 C 987.178 633.565 986.355 632.047 983.193 627.38 C 980.317 623.135 965.198 624.789 960.217 624.711 z" fill="rgb(255,243,226)" transform="translate(0,0)"></path>
<metadata><recraft-signature>{"signed_by": "recraft", "signature_b64": "b+bMGOOwYoL9ldOOd9MOTc/22KUoUe16Hl+xyqWbGW+kcfe98S/Nvdti2koBk+pF+9k8D0ZBJ7Vo2V27bGavCg==", "signing_algo": "Ed25519", "generation_timestamp": 1782577366, "identifier": "dea6e6ad-75a8-4907-bde4-941624bb5a56"}</recraft-signature></metadata></svg>