<svg xmlns="http://www.w3.org/2000/svg" viewBox="520 440 1010 1180" version="1.1" style="display:block">
<path d="M 1024.61 715.523 C 1028.18 718.059 1085.35 812.963 1092.58 824.671 L 1320.44 1193.81 L 1026.5 1193.66 L 728.854 1193.73 L 1024.61 715.523 z M 1024.13 771.505 C 1028.83 774.961 1075.85 853.734 1083.7 866.418 L 1267.45 1163.46 C 1188.17 1165.02 1104.2 1163.68 1024.5 1163.72 L 781.682 1163.63 C 803.856 1125.62 830.627 1084.52 853.979 1046.73 L 1024.13 771.505 z" fill="rgb(255,107,94)" fill-rule="evenodd"></path>
<path d="M 1022.85 915.316 C 1052.12 913.519 1077.32 935.766 1079.16 965.034 C 1081.01 994.302 1058.8 1019.54 1029.54 1021.43 C 1000.2 1023.32 974.899 1001.06 973.05 971.721 C 971.201 942.385 993.511 917.117 1022.85 915.316 z" fill="rgb(255,159,69)" transform="translate(0,0)"></path>
<path d="M 1085.93 999.68 C 1096.07 1000.56 1107.47 1006.04 1115.08 1012.65 C 1126.39 1022.5 1133.18 1036.56 1133.85 1051.55 C 1134.37 1065.74 1129.23 1079.55 1119.55 1089.93 C 1107.64 1102.77 1094.69 1106.42 1077.99 1106.88 C 1073.32 1106.4 1068.08 1105.54 1063.65 1104.04 C 1050.37 1099.69 1039.41 1090.14 1033.29 1077.57 C 1025.72 1061.83 1027.74 1049.18 1032.94 1033.68 C 1035.65 1033.37 1038.35 1032.93 1041.03 1032.37 C 1061.5 1028.24 1074.63 1016.55 1085.93 999.68 z" fill="rgb(255,159,69)" transform="translate(0,0)"></path>
<path d="M 963.532 1000.95 C 967.308 1001.59 979.425 1020.22 987.138 1024.44 C 998.795 1030.82 1005.21 1031.73 1018.21 1034.35 C 1012.04 1051.55 1013.4 1065.29 1019.48 1082.08 C 1009.77 1095.77 998.777 1102.25 982.784 1106.18 C 972.034 1107.41 962.164 1106.5 952.142 1102.28 C 939.175 1096.89 929.013 1086.39 924.069 1073.25 C 911.175 1038.95 931.434 1011.66 963.532 1000.95 z" fill="rgb(255,159,69)" transform="translate(0,0)"></path>
<path d="M 636.522 871.308 C 638.353 763.522 682.247 660.723 758.831 584.855 C 831.847 512.497 930.964 472.655 1033.75 474.346 C 1136.34 475.883 1234.02 518.574 1304.84 592.829 C 1365.81 655.544 1404.4 740.991 1415.63 827.071 C 1417.6 842.199 1417.44 856.011 1418.61 870.948 L 1419.56 871.896 C 1426.92 879.142 1435.18 884.769 1442 892.229 C 1464.89 917.274 1477.04 951.075 1477.31 984.753 C 1477.86 1020.7 1463.88 1055.35 1438.55 1080.86 C 1425.45 1094.06 1411.13 1102.89 1393.7 1109.22 L 1393.68 958.876 C 1393.69 935.493 1394.97 909.331 1392.41 886.207 C 1389.72 861.938 1363.4 847.295 1340.26 846.893 C 1334.3 760.862 1294.33 680.746 1229.16 624.258 C 1166.54 569.422 1084.27 542.49 1001.34 549.683 C 919.77 556.918 844.402 596.219 791.777 658.961 C 745.265 713.969 720.25 775.983 714.876 847.708 C 693.642 848.382 666.211 858.705 663.856 883.271 C 661.598 906.832 662.719 932.648 662.732 956.581 L 662.774 1109.47 C 619.276 1093.7 582.492 1051.33 578.959 1004.37 C 576.3 991.789 576.92 977.409 579.25 964.833 C 582.512 937.416 596.709 910.052 615.878 890.332 C 622.509 883.509 630.206 877.763 636.522 871.308 z" fill="rgb(33,230,193)" transform="translate(0,0)"></path>
<path d="M 899.756 1254.02 C 943.303 1246.84 984.402 1276.39 991.478 1319.95 C 998.555 1363.51 968.92 1404.54 925.342 1411.52 C 881.903 1418.48 841.031 1388.96 833.977 1345.53 C 826.923 1302.11 856.349 1261.17 899.756 1254.02 z" fill="rgb(255,243,226)" transform="translate(0,0)"></path>
<path d="M 1348.63 1423.84 C 1392.7 1422.41 1429.57 1457.02 1430.91 1501.1 C 1432.25 1545.18 1397.56 1581.97 1353.49 1583.22 C 1309.53 1584.47 1272.87 1549.91 1271.53 1505.96 C 1270.19 1462.01 1304.68 1425.27 1348.63 1423.84 z" fill="rgb(255,243,226)" transform="translate(0,0)"></path>
<path d="M 1318.09 862.165 C 1344.33 860.224 1360.43 873.56 1360.77 900.379 C 1361.46 953.239 1360.77 1006.18 1361.04 1059.05 C 1361.12 1073.91 1362.11 1090.88 1350.72 1102.21 C 1341.86 1111.42 1333.92 1113.2 1321.99 1113.61 C 1276.43 1108.45 1275.36 1067 1276.37 1031.82 C 1277.56 990.722 1274.71 948.699 1277.32 907.593 C 1278.8 884.375 1296.22 867.349 1318.09 862.165 z" fill="rgb(33,230,193)" transform="translate(0,0)"></path>
<path d="M 819.685 1425.88 C 853.741 1425.72 909.936 1419.93 935.628 1445.57 C 966.246 1476.12 965.433 1531.09 935.251 1562.39 C 905.937 1588.48 857.37 1582.64 819.294 1582.7 L 819.685 1425.88 z" fill="rgb(255,243,226)" transform="translate(0,0)"></path>
<path d="M 725.913 861.38 C 755.404 862.337 775.728 884.651 776.475 913.296 C 777.063 935.857 777.699 959.914 776.993 982.499 C 775.986 1014.74 780.174 1049.42 773.712 1080.81 C 771.001 1093.28 755.557 1105.43 744.33 1110.43 C 741.556 1111.25 738.728 1111.88 735.865 1112.32 C 715.879 1115.35 698.191 1104.76 695.936 1084.07 C 694.519 1071.06 694.835 1058.86 694.817 1045.83 L 694.761 986.759 L 694.761 924.707 C 694.775 895.795 688.533 866.552 725.913 861.38 z" fill="rgb(33,230,193)" transform="translate(0,0)"></path>
<path d="M 1292.19 1253.36 C 1320.81 1249.92 1352.18 1264.29 1367.24 1289.09 C 1355.31 1317.85 1352.55 1338.94 1370.28 1365.89 C 1361.85 1394.78 1337.37 1406.76 1309.9 1411.91 C 1288.81 1414.17 1267.5 1409.23 1250.48 1396.32 C 1208.71 1364.64 1214.31 1285.9 1261.99 1262.11 C 1272.85 1256.7 1280.18 1254.85 1292.19 1253.36 z" fill="rgb(255,243,226)" transform="translate(0,0)"></path>
<path d="M 698.415 1254.52 C 723.813 1254.96 756.074 1252.38 780.371 1256.26 C 816.432 1262.03 832.759 1303.69 822.154 1335.84 C 817.152 1351.01 808.32 1359.64 794.816 1367.55 L 790.089 1369.19 L 790.001 1370.18 C 795.143 1370.87 797.369 1370.81 802.591 1370.64 L 822.553 1370.85 C 826.307 1384.32 831.508 1399.3 835.858 1412.73 L 771.991 1412.8 C 768.641 1403.19 762.192 1379.41 757.268 1372.01 L 755.763 1371.93 C 752.791 1378.41 753.872 1404.51 753.936 1413.34 L 698.293 1413.09 L 698.415 1254.52 z" fill="rgb(255,243,226)" transform="translate(0,0)"></path>
<path d="M 1097.97 1254.47 L 1213.13 1254.73 L 1213.31 1303.55 C 1196.36 1303.9 1179.42 1304.41 1162.48 1305.06 C 1160.97 1305.39 1155.85 1305.98 1154.85 1306.6 C 1155.16 1307.02 1155.49 1307.46 1155.83 1307.89 C 1173.86 1309.02 1192.31 1311.38 1210.03 1312.37 L 1209.83 1350.8 C 1194.34 1351.47 1169.99 1353.31 1155.18 1352.92 L 1152.42 1355.14 C 1157.08 1355.03 1169.34 1356.38 1174.5 1356.82 C 1188.3 1358.07 1202.13 1359.08 1215.97 1359.85 L 1215.9 1412.59 C 1176.96 1413.27 1136.88 1412.97 1097.82 1413.14 L 1097.97 1254.47 z" fill="rgb(255,243,226)" transform="translate(0,0)"></path>
<path d="M 1143.39 1306.33 C 1151.01 1305.48 1154.72 1304.92 1162.48 1305.06 C 1160.97 1305.39 1155.85 1305.98 1154.85 1306.6 C 1155.16 1307.02 1155.49 1307.46 1155.83 1307.89 C 1151.74 1307.87 1147.5 1306.95 1143.39 1306.33 z" fill="rgb(106,95,121)" transform="translate(0,0)"></path>
<path d="M 1152.42 1355.14 C 1151.43 1355.1 1147.89 1355.35 1147.31 1354.23 C 1147.86 1352.35 1153.86 1352.91 1155.18 1352.92 L 1152.42 1355.14 z" fill="rgb(124,117,137)" transform="translate(0,0)"></path>
<path d="M 969.215 1425.94 L 1085.05 1425.9 L 1085.07 1478.49 C 1068.52 1478.84 1051.73 1479.53 1035.16 1480.07 C 1031.15 1480.76 1027.56 1481.12 1023.55 1482.03 C 1041.05 1484.38 1062.05 1485.54 1079.9 1487.09 L 1079.81 1524.83 C 1063.09 1525.41 1040.24 1527.15 1024.09 1526.98 L 1024.77 1528.97 C 1041.06 1529.39 1067.71 1532.47 1084.98 1533.92 L 1085.01 1582.17 L 969.426 1582.33 C 968.601 1530.8 969.231 1477.61 969.215 1425.94 z" fill="rgb(255,243,226)" transform="translate(0,0)"></path>
<path d="M 1023.55 1482.03 C 1022.25 1482.18 1017.99 1482.39 1017.19 1481.06 C 1018.83 1479.28 1032.64 1479.93 1035.16 1480.07 C 1031.15 1480.76 1027.56 1481.12 1023.55 1482.03 z" fill="rgb(165,158,165)" transform="translate(0,0)"></path>
<path d="M 1019.98 1527.16 L 1024.09 1526.98 L 1024.77 1528.97 L 1020.94 1529.16 L 1019.98 1527.16 z" fill="rgb(106,95,121)" transform="translate(0,0)"></path>
<path d="M 1020.94 1529.16 C 1020.37 1529.01 1017 1528.31 1016.67 1527.6 C 1017.96 1527.12 1018.46 1527.22 1019.98 1527.16 L 1020.94 1529.16 z" fill="rgb(165,158,165)" transform="translate(0,0)"></path>
<path d="M 564.594 1254.61 C 581.17 1254.58 635.798 1253.42 648.531 1256.24 C 656.372 1257.91 663.733 1261.33 670.065 1266.25 C 681.555 1275.36 687.66 1288.16 689.2 1302.55 C 690.888 1317.1 686.595 1331.71 677.305 1343.04 C 666.546 1356.22 654.885 1360.68 638.631 1362.25 L 608.162 1362.37 L 608.102 1413.74 L 564.258 1413.8 L 564.594 1254.61 z" fill="rgb(255,243,226)" transform="translate(0,0)"></path>
<path d="M 626.97 1425.9 L 738.993 1425.86 L 739.047 1483.05 C 727.261 1483.2 715.477 1483.51 703.699 1483.96 C 697.733 1483.71 678.744 1483.18 673.726 1485.09 C 675.333 1486.69 683.917 1487.01 686.479 1486.87 C 697.985 1488.88 717.608 1490.1 729.807 1491.18 L 729.792 1530.17 C 710.853 1530.03 691.912 1530.02 672.973 1530.14 L 673.027 1582.36 L 626.879 1582.38 L 626.97 1425.9 z" fill="rgb(255,243,226)" transform="translate(0,0)"></path>
<path d="M 1372.69 1254.55 L 1487.19 1254.72 L 1487.22 1302.88 L 1457.89 1302.85 L 1457.89 1384.5 L 1457.89 1413.79 L 1403.33 1413.71 L 1403.23 1302.79 L 1372.95 1302.97 L 1372.69 1254.55 z" fill="rgb(255,243,226)" transform="translate(0,0)"></path>
<path d="M 1102.66 1425.78 L 1149.94 1425.78 L 1149.89 1530.22 C 1168.01 1530.12 1186.13 1530.23 1204.24 1530.54 L 1204.33 1582.3 L 1102.23 1582.46 L 1102.66 1425.78 z" fill="rgb(255,243,226)" transform="translate(0,0)"></path>
<path d="M 1037.01 1254.64 L 1084.33 1254.74 L 1084.44 1327.7 C 1084.64 1372.21 1090.75 1402.82 1036.24 1411.76 C 1023.44 1412.85 1009.77 1412.59 996.863 1412.63 L 997.124 1345.05 C 1011.97 1354.72 1033.07 1356 1036.67 1333.58 C 1037.98 1325.43 1037.13 1313.87 1037.09 1305.42 L 1037.01 1254.64 z" fill="rgb(255,243,226)" transform="translate(0,0)"></path>
<path d="M 1215.86 1425.88 L 1263.62 1425.83 L 1263.91 1582.19 L 1215.88 1582.34 L 1215.86 1425.88 z" fill="rgb(255,243,226)" transform="translate(0,0)"></path>
<path d="M 754.212 1425.79 L 801.257 1425.83 L 801.114 1582.31 L 754.058 1582.46 L 754.212 1425.79 z" fill="rgb(255,243,226)" transform="translate(0,0)"></path>
<metadata><recraft-signature>{"signed_by": "recraft", "signature_b64": "J/61KYqdBYWCatmygY4dNz4C0XBdQ/a0kcKsUf70lqPY1fSc0NoPtDt1YetvupCslzsEWpwk8hXRZijGkWHEBg==", "signing_algo": "Ed25519", "generation_timestamp": 1782566290, "identifier": "84bbf46e-a958-41e8-9570-d7df77e00695"}</recraft-signature></metadata></svg>